<mxfile host="app.diagrams.net" agent="Mozilla/5.0 (Macintosh; Intel Mac OS X 10_15_7) AppleWebKit/537.36 (KHTML, like Gecko) Chrome/139.0.0.0 Safari/537.36" version="28.1.2">
  <diagram name="第 1 页" id="nJH9qGkchorVnbPcMWSl">
    <mxGraphModel dx="1128" dy="1257" grid="1" gridSize="10" guides="1" tooltips="1" connect="1" arrows="1" fold="1" page="0" pageScale="1" pageWidth="827" pageHeight="1169" math="0" shadow="0">
      <root>
        <mxCell id="0" />
        <mxCell id="1" parent="0" />
        <mxCell id="wIsJc7n_yPizJER-kU21-1" value="左值" style="rounded=1;whiteSpace=wrap;html=1;fillColor=#dae8fc;strokeColor=#6c8ebf;fontSize=16;fontStyle=1" vertex="1" parent="1">
          <mxGeometry x="130" y="300" width="120" height="60" as="geometry" />
        </mxCell>
        <mxCell id="wIsJc7n_yPizJER-kU21-2" value="右值" style="rounded=1;whiteSpace=wrap;html=1;fillColor=#dae8fc;strokeColor=#6c8ebf;fontSize=16;fontStyle=1" vertex="1" parent="1">
          <mxGeometry x="624" y="300" width="120" height="60" as="geometry" />
        </mxCell>
        <mxCell id="wIsJc7n_yPizJER-kU21-3" value="将亡值&lt;div&gt;&lt;font style=&quot;font-size: 10px;&quot;&gt;即将被销毁但可移动的&lt;/font&gt;&lt;/div&gt;" style="rounded=1;whiteSpace=wrap;html=1;fillColor=#dae8fc;strokeColor=#6c8ebf;fontSize=16;fontStyle=1" vertex="1" parent="1">
          <mxGeometry x="743" y="410" width="120" height="60" as="geometry" />
        </mxCell>
        <mxCell id="wIsJc7n_yPizJER-kU21-4" value="纯右值&lt;br&gt;&lt;font style=&quot;font-size: 10px;&quot;&gt;临时的&lt;/font&gt;" style="rounded=1;whiteSpace=wrap;html=1;fillColor=#dae8fc;strokeColor=#6c8ebf;fontSize=16;fontStyle=1" vertex="1" parent="1">
          <mxGeometry x="503" y="410" width="120" height="60" as="geometry" />
        </mxCell>
        <mxCell id="wIsJc7n_yPizJER-kU21-5" value="&lt;h3 style=&quot;border: 0px; font-variant-numeric: inherit; font-variant-east-asian: inherit; font-variant-alternates: inherit; font-variant-position: inherit; font-variant-emoji: inherit; font-stretch: inherit; font-size: 16px; line-height: 1.25; font-family: &amp;quot;PingFang SC&amp;quot;, -apple-system, &amp;quot;system-ui&amp;quot;, &amp;quot;Segoe UI&amp;quot;, Roboto, Ubuntu, &amp;quot;Helvetica Neue&amp;quot;, Helvetica, Arial, &amp;quot;Hiragino Sans GB&amp;quot;, &amp;quot;Microsoft YaHei UI&amp;quot;, &amp;quot;Microsoft YaHei&amp;quot;, &amp;quot;Source Han Sans CN&amp;quot;, sans-serif; font-optical-sizing: inherit; font-size-adjust: inherit; font-kerning: inherit; font-feature-settings: inherit; font-variation-settings: inherit; margin: 16px 0px; padding: 0px; vertical-align: baseline; color: rgba(0, 0, 0, 0.9); letter-spacing: -0.16px; text-align: start;&quot;&gt;&lt;span style=&quot;border: 0px; font-style: inherit; font-variant: inherit; font-stretch: inherit; font-size: inherit; line-height: inherit; font-family: inherit; font-optical-sizing: inherit; font-size-adjust: inherit; font-kerning: inherit; font-feature-settings: inherit; font-variation-settings: inherit; margin: 0px; padding: 0px; vertical-align: baseline;&quot;&gt;C++语言核心：值类别&lt;/span&gt;&lt;/h3&gt;" style="text;html=1;align=center;verticalAlign=middle;whiteSpace=wrap;rounded=0;fillColor=#fff2cc;strokeColor=#d6b656;gradientColor=#ffd966;" vertex="1" parent="1">
          <mxGeometry x="-100" y="350" width="170" height="60" as="geometry" />
        </mxCell>
        <mxCell id="wIsJc7n_yPizJER-kU21-6" value="" style="endArrow=none;html=1;rounded=0;dashed=1;dashPattern=12 12;" edge="1" parent="1">
          <mxGeometry width="50" height="50" relative="1" as="geometry">
            <mxPoint x="120" y="260" as="sourcePoint" />
            <mxPoint x="1000" y="260" as="targetPoint" />
          </mxGeometry>
        </mxCell>
        <mxCell id="wIsJc7n_yPizJER-kU21-7" value="左值引用 (T&amp;amp;)" style="rounded=1;whiteSpace=wrap;html=1;fillColor=#dae8fc;strokeColor=#6c8ebf;fontSize=16;fontStyle=1" vertex="1" parent="1">
          <mxGeometry x="130" y="160" width="120" height="60" as="geometry" />
        </mxCell>
        <mxCell id="wIsJc7n_yPizJER-kU21-8" value="右值引用 (T&amp;amp;&amp;amp;)" style="rounded=1;whiteSpace=wrap;html=1;fillColor=#dae8fc;strokeColor=#6c8ebf;fontSize=16;fontStyle=1" vertex="1" parent="1">
          <mxGeometry x="624" y="160" width="120" height="60" as="geometry" />
        </mxCell>
        <mxCell id="wIsJc7n_yPizJER-kU21-9" value="完美转发&lt;br&gt;&lt;span style=&quot;font-family: ui-monospace, SFMono-Regular, &amp;quot;SF Mono&amp;quot;, Menlo, Consolas, &amp;quot;Liberation Mono&amp;quot;, monospace; font-size: 14px; font-weight: 400; letter-spacing: -0.16px; text-align: left; white-space: pre;&quot;&gt;参数性质保持（&lt;/span&gt;&lt;span style=&quot;font-family: ui-monospace, SFMono-Regular, &amp;quot;SF Mono&amp;quot;, Menlo, Consolas, &amp;quot;Liberation Mono&amp;quot;, monospace; font-size: 14px; font-weight: 400; letter-spacing: -0.16px; text-align: left; white-space: pre;&quot;&gt;泛型编程&lt;/span&gt;&lt;span style=&quot;font-family: ui-monospace, SFMono-Regular, &amp;quot;SF Mono&amp;quot;, Menlo, Consolas, &amp;quot;Liberation Mono&amp;quot;, monospace; font-size: 14px; font-weight: 400; letter-spacing: -0.16px; text-align: left; white-space: pre;&quot;&gt;）&lt;/span&gt;" style="rounded=1;whiteSpace=wrap;html=1;fillColor=#dae8fc;strokeColor=#6c8ebf;fontSize=16;fontStyle=1" vertex="1" parent="1">
          <mxGeometry x="588.5" y="-330" width="180" height="60" as="geometry" />
        </mxCell>
        <mxCell id="wIsJc7n_yPizJER-kU21-10" value="移动语义&lt;br&gt;&lt;span style=&quot;font-family: ui-monospace, SFMono-Regular, &amp;quot;SF Mono&amp;quot;, Menlo, Consolas, &amp;quot;Liberation Mono&amp;quot;, monospace; font-size: 14px; font-weight: 400; letter-spacing: -0.16px; text-align: left; white-space: pre;&quot;&gt;资源所有权转移&lt;/span&gt;" style="rounded=1;whiteSpace=wrap;html=1;fillColor=#dae8fc;strokeColor=#6c8ebf;fontSize=16;fontStyle=1" vertex="1" parent="1">
          <mxGeometry x="330" y="-330" width="180" height="60" as="geometry" />
        </mxCell>
        <mxCell id="wIsJc7n_yPizJER-kU21-14" value="临时对象" style="rounded=1;whiteSpace=wrap;html=1;fillColor=#dae8fc;strokeColor=#6c8ebf;fontSize=16;fontStyle=1" vertex="1" parent="1">
          <mxGeometry x="583" y="550" width="120" height="60" as="geometry" />
        </mxCell>
        <mxCell id="wIsJc7n_yPizJER-kU21-15" value="字面量" style="rounded=1;whiteSpace=wrap;html=1;fillColor=#dae8fc;strokeColor=#6c8ebf;fontSize=16;fontStyle=1" vertex="1" parent="1">
          <mxGeometry x="433" y="550" width="120" height="60" as="geometry" />
        </mxCell>
        <mxCell id="wIsJc7n_yPizJER-kU21-16" value="" style="endArrow=classic;html=1;rounded=0;exitX=0.5;exitY=0;exitDx=0;exitDy=0;fontSize=16;fontStyle=1;entryX=0.5;entryY=1;entryDx=0;entryDy=0;" edge="1" parent="1" source="wIsJc7n_yPizJER-kU21-15" target="wIsJc7n_yPizJER-kU21-4">
          <mxGeometry width="50" height="50" relative="1" as="geometry">
            <mxPoint x="553" y="490" as="sourcePoint" />
            <mxPoint x="553" y="580" as="targetPoint" />
          </mxGeometry>
        </mxCell>
        <mxCell id="wIsJc7n_yPizJER-kU21-18" value="" style="endArrow=classic;html=1;rounded=0;exitX=0.5;exitY=0;exitDx=0;exitDy=0;fontSize=16;fontStyle=1;entryX=0.5;entryY=1;entryDx=0;entryDy=0;" edge="1" parent="1" source="wIsJc7n_yPizJER-kU21-14" target="wIsJc7n_yPizJER-kU21-4">
          <mxGeometry width="50" height="50" relative="1" as="geometry">
            <mxPoint x="673" y="610" as="sourcePoint" />
            <mxPoint x="983" y="490" as="targetPoint" />
          </mxGeometry>
        </mxCell>
        <mxCell id="wIsJc7n_yPizJER-kU21-19" value="" style="endArrow=classic;html=1;rounded=0;entryX=0.5;entryY=1;entryDx=0;entryDy=0;exitX=0.5;exitY=0;exitDx=0;exitDy=0;" edge="1" parent="1" source="wIsJc7n_yPizJER-kU21-2" target="wIsJc7n_yPizJER-kU21-8">
          <mxGeometry width="50" height="50" relative="1" as="geometry">
            <mxPoint x="510" y="570" as="sourcePoint" />
            <mxPoint x="530" y="410" as="targetPoint" />
          </mxGeometry>
        </mxCell>
        <mxCell id="wIsJc7n_yPizJER-kU21-22" value="" style="endArrow=none;html=1;rounded=0;dashed=1;dashPattern=12 12;" edge="1" parent="1">
          <mxGeometry width="50" height="50" relative="1" as="geometry">
            <mxPoint x="120" y="-50" as="sourcePoint" />
            <mxPoint x="1000" y="-50" as="targetPoint" />
          </mxGeometry>
        </mxCell>
        <mxCell id="wIsJc7n_yPizJER-kU21-23" value="&lt;h3 style=&quot;border: 0px; font-variant-numeric: inherit; font-variant-east-asian: inherit; font-variant-alternates: inherit; font-variant-position: inherit; font-variant-emoji: inherit; font-stretch: inherit; font-size: 16px; line-height: 1.25; font-family: &amp;quot;PingFang SC&amp;quot;, -apple-system, &amp;quot;system-ui&amp;quot;, &amp;quot;Segoe UI&amp;quot;, Roboto, Ubuntu, &amp;quot;Helvetica Neue&amp;quot;, Helvetica, Arial, &amp;quot;Hiragino Sans GB&amp;quot;, &amp;quot;Microsoft YaHei UI&amp;quot;, &amp;quot;Microsoft YaHei&amp;quot;, &amp;quot;Source Han Sans CN&amp;quot;, sans-serif; font-optical-sizing: inherit; font-size-adjust: inherit; font-kerning: inherit; font-feature-settings: inherit; font-variation-settings: inherit; margin: 16px 0px; padding: 0px; vertical-align: baseline; color: rgba(0, 0, 0, 0.9); letter-spacing: -0.16px; text-align: start;&quot;&gt;&lt;span&gt;引用&lt;/span&gt;&lt;/h3&gt;" style="text;html=1;align=center;verticalAlign=middle;whiteSpace=wrap;rounded=0;fillColor=#fff2cc;strokeColor=#d6b656;gradientColor=#ffd966;" vertex="1" parent="1">
          <mxGeometry x="-100" y="170" width="170" height="60" as="geometry" />
        </mxCell>
        <mxCell id="wIsJc7n_yPizJER-kU21-24" value="" style="endArrow=classic;html=1;rounded=0;entryX=0.5;entryY=1;entryDx=0;entryDy=0;exitX=0.5;exitY=0;exitDx=0;exitDy=0;" edge="1" parent="1" source="wIsJc7n_yPizJER-kU21-1" target="wIsJc7n_yPizJER-kU21-7">
          <mxGeometry width="50" height="50" relative="1" as="geometry">
            <mxPoint x="440" y="290" as="sourcePoint" />
            <mxPoint x="610" y="230" as="targetPoint" />
          </mxGeometry>
        </mxCell>
        <mxCell id="wIsJc7n_yPizJER-kU21-25" value="" style="endArrow=none;html=1;rounded=0;dashed=1;dashPattern=12 12;" edge="1" parent="1">
          <mxGeometry width="50" height="50" relative="1" as="geometry">
            <mxPoint x="120" y="-370" as="sourcePoint" />
            <mxPoint x="1000" y="-370" as="targetPoint" />
          </mxGeometry>
        </mxCell>
        <mxCell id="wIsJc7n_yPizJER-kU21-26" value="移动构造函数" style="rounded=1;whiteSpace=wrap;html=1;fillColor=#dae8fc;strokeColor=#6c8ebf;fontSize=16;fontStyle=1" vertex="1" parent="1">
          <mxGeometry x="280" y="-470" width="120" height="60" as="geometry" />
        </mxCell>
        <mxCell id="wIsJc7n_yPizJER-kU21-27" value="移动赋值运算符" style="rounded=1;whiteSpace=wrap;html=1;fillColor=#dae8fc;strokeColor=#6c8ebf;fontSize=16;fontStyle=1" vertex="1" parent="1">
          <mxGeometry x="440" y="-470" width="120" height="60" as="geometry" />
        </mxCell>
        <mxCell id="wIsJc7n_yPizJER-kU21-28" value="" style="endArrow=classic;html=1;rounded=0;entryX=0.5;entryY=1;entryDx=0;entryDy=0;exitX=0.5;exitY=0;exitDx=0;exitDy=0;" edge="1" parent="1" source="wIsJc7n_yPizJER-kU21-10" target="wIsJc7n_yPizJER-kU21-26">
          <mxGeometry width="50" height="50" relative="1" as="geometry">
            <mxPoint x="560" y="-190" as="sourcePoint" />
            <mxPoint x="470" y="-250" as="targetPoint" />
          </mxGeometry>
        </mxCell>
        <mxCell id="wIsJc7n_yPizJER-kU21-29" value="" style="endArrow=classic;html=1;rounded=0;entryX=0.5;entryY=1;entryDx=0;entryDy=0;exitX=0.5;exitY=0;exitDx=0;exitDy=0;" edge="1" parent="1" source="wIsJc7n_yPizJER-kU21-10" target="wIsJc7n_yPizJER-kU21-27">
          <mxGeometry width="50" height="50" relative="1" as="geometry">
            <mxPoint x="720" y="-250" as="sourcePoint" />
            <mxPoint x="610" y="-330" as="targetPoint" />
          </mxGeometry>
        </mxCell>
        <mxCell id="wIsJc7n_yPizJER-kU21-30" value="&lt;h3 style=&quot;border: 0px; font-variant-numeric: inherit; font-variant-east-asian: inherit; font-variant-alternates: inherit; font-variant-position: inherit; font-variant-emoji: inherit; font-stretch: inherit; font-size: 16px; line-height: 1.25; font-family: &amp;quot;PingFang SC&amp;quot;, -apple-system, &amp;quot;system-ui&amp;quot;, &amp;quot;Segoe UI&amp;quot;, Roboto, Ubuntu, &amp;quot;Helvetica Neue&amp;quot;, Helvetica, Arial, &amp;quot;Hiragino Sans GB&amp;quot;, &amp;quot;Microsoft YaHei UI&amp;quot;, &amp;quot;Microsoft YaHei&amp;quot;, &amp;quot;Source Han Sans CN&amp;quot;, sans-serif; font-optical-sizing: inherit; font-size-adjust: inherit; font-kerning: inherit; font-feature-settings: inherit; font-variation-settings: inherit; margin: 16px 0px; padding: 0px; vertical-align: baseline; color: rgba(0, 0, 0, 0.9); letter-spacing: -0.16px; text-align: start;&quot;&gt;&lt;span style=&quot;color: rgb(0, 0, 0); letter-spacing: -0.16px;&quot;&gt;基于值类别的高级特性&lt;/span&gt;&lt;/h3&gt;" style="text;html=1;align=center;verticalAlign=middle;whiteSpace=wrap;rounded=0;fillColor=#fff2cc;strokeColor=#d6b656;fontStyle=1;gradientColor=#ffd966;" vertex="1" parent="1">
          <mxGeometry x="-100" y="-330" width="170" height="60" as="geometry" />
        </mxCell>
        <mxCell id="wIsJc7n_yPizJER-kU21-31" value="&lt;h3 style=&quot;border: 0px; font-variant-numeric: inherit; font-variant-east-asian: inherit; font-variant-alternates: inherit; font-variant-position: inherit; font-variant-emoji: inherit; font-stretch: inherit; font-size: 16px; line-height: 1.25; font-family: &amp;quot;PingFang SC&amp;quot;, -apple-system, &amp;quot;system-ui&amp;quot;, &amp;quot;Segoe UI&amp;quot;, Roboto, Ubuntu, &amp;quot;Helvetica Neue&amp;quot;, Helvetica, Arial, &amp;quot;Hiragino Sans GB&amp;quot;, &amp;quot;Microsoft YaHei UI&amp;quot;, &amp;quot;Microsoft YaHei&amp;quot;, &amp;quot;Source Han Sans CN&amp;quot;, sans-serif; font-optical-sizing: inherit; font-size-adjust: inherit; font-kerning: inherit; font-feature-settings: inherit; font-variation-settings: inherit; margin: 16px 0px; padding: 0px; vertical-align: baseline; color: rgba(0, 0, 0, 0.9); letter-spacing: -0.16px; text-align: start;&quot;&gt;&lt;span&gt;语法实现&lt;/span&gt;&lt;/h3&gt;" style="text;html=1;align=center;verticalAlign=middle;whiteSpace=wrap;rounded=0;fillColor=#fff2cc;strokeColor=#d6b656;gradientColor=#ffd966;" vertex="1" parent="1">
          <mxGeometry x="-100" y="-460" width="170" height="60" as="geometry" />
        </mxCell>
        <mxCell id="wIsJc7n_yPizJER-kU21-35" value="引用折叠规则" style="rounded=1;whiteSpace=wrap;html=1;fillColor=#dae8fc;strokeColor=#6c8ebf;fontSize=16;fontStyle=1" vertex="1" parent="1">
          <mxGeometry x="468.5" y="60" width="120" height="60" as="geometry" />
        </mxCell>
        <mxCell id="wIsJc7n_yPizJER-kU21-36" value="通用引用&lt;br&gt;&lt;font style=&quot;font-size: 12px;&quot;&gt;万能引用&lt;/font&gt;" style="rounded=1;whiteSpace=wrap;html=1;fillColor=#dae8fc;strokeColor=#6c8ebf;fontSize=16;fontStyle=1" vertex="1" parent="1">
          <mxGeometry x="780" y="60" width="120" height="60" as="geometry" />
        </mxCell>
        <mxCell id="wIsJc7n_yPizJER-kU21-39" value="" style="endArrow=none;html=1;rounded=0;dashed=1;dashPattern=12 12;" edge="1" parent="1">
          <mxGeometry width="50" height="50" relative="1" as="geometry">
            <mxPoint x="120" y="510" as="sourcePoint" />
            <mxPoint x="1000" y="510" as="targetPoint" />
          </mxGeometry>
        </mxCell>
        <mxCell id="wIsJc7n_yPizJER-kU21-40" value="" style="endArrow=classic;html=1;rounded=0;entryX=0.5;entryY=1;entryDx=0;entryDy=0;exitX=0.5;exitY=0;exitDx=0;exitDy=0;" edge="1" parent="1" source="wIsJc7n_yPizJER-kU21-3" target="wIsJc7n_yPizJER-kU21-2">
          <mxGeometry width="50" height="50" relative="1" as="geometry">
            <mxPoint x="660" y="470" as="sourcePoint" />
            <mxPoint x="710" y="420" as="targetPoint" />
          </mxGeometry>
        </mxCell>
        <mxCell id="wIsJc7n_yPizJER-kU21-41" value="" style="endArrow=classic;html=1;rounded=0;entryX=0.5;entryY=1;entryDx=0;entryDy=0;exitX=0.5;exitY=0;exitDx=0;exitDy=0;" edge="1" parent="1" source="wIsJc7n_yPizJER-kU21-4" target="wIsJc7n_yPizJER-kU21-2">
          <mxGeometry width="50" height="50" relative="1" as="geometry">
            <mxPoint x="890" y="430" as="sourcePoint" />
            <mxPoint x="980" y="380" as="targetPoint" />
          </mxGeometry>
        </mxCell>
        <mxCell id="wIsJc7n_yPizJER-kU21-42" value="通过 std::move 得到的对象" style="rounded=1;whiteSpace=wrap;html=1;fillColor=#dae8fc;strokeColor=#6c8ebf;fontSize=16;fontStyle=1" vertex="1" parent="1">
          <mxGeometry x="731.5" y="550" width="143" height="60" as="geometry" />
        </mxCell>
        <mxCell id="wIsJc7n_yPizJER-kU21-43" value="" style="endArrow=classic;html=1;rounded=0;entryX=0.5;entryY=1;entryDx=0;entryDy=0;exitX=0.5;exitY=0;exitDx=0;exitDy=0;" edge="1" parent="1" source="wIsJc7n_yPizJER-kU21-42" target="wIsJc7n_yPizJER-kU21-3">
          <mxGeometry width="50" height="50" relative="1" as="geometry">
            <mxPoint x="653" y="470" as="sourcePoint" />
            <mxPoint x="703" y="420" as="targetPoint" />
          </mxGeometry>
        </mxCell>
        <mxCell id="wIsJc7n_yPizJER-kU21-45" value="" style="endArrow=none;html=1;rounded=0;dashed=1;dashPattern=12 12;" edge="1" parent="1">
          <mxGeometry width="50" height="50" relative="1" as="geometry">
            <mxPoint x="120" y="-180" as="sourcePoint" />
            <mxPoint x="1000" y="-180" as="targetPoint" />
          </mxGeometry>
        </mxCell>
        <mxCell id="wIsJc7n_yPizJER-kU21-46" value="&lt;h3 style=&quot;border: 0px; font-variant-numeric: inherit; font-variant-east-asian: inherit; font-variant-alternates: inherit; font-variant-position: inherit; font-variant-emoji: inherit; font-stretch: inherit; font-size: 16px; line-height: 1.25; font-family: &amp;quot;PingFang SC&amp;quot;, -apple-system, &amp;quot;system-ui&amp;quot;, &amp;quot;Segoe UI&amp;quot;, Roboto, Ubuntu, &amp;quot;Helvetica Neue&amp;quot;, Helvetica, Arial, &amp;quot;Hiragino Sans GB&amp;quot;, &amp;quot;Microsoft YaHei UI&amp;quot;, &amp;quot;Microsoft YaHei&amp;quot;, &amp;quot;Source Han Sans CN&amp;quot;, sans-serif; font-optical-sizing: inherit; font-size-adjust: inherit; font-kerning: inherit; font-feature-settings: inherit; font-variation-settings: inherit; margin: 16px 0px; padding: 0px; vertical-align: baseline; letter-spacing: -0.16px; text-align: start; color: rgba(0, 0, 0, 0.9);&quot;&gt;语法工具&lt;/h3&gt;" style="text;html=1;align=center;verticalAlign=middle;whiteSpace=wrap;rounded=0;fillColor=#fff2cc;strokeColor=#d6b656;fontStyle=1;gradientColor=#ffd966;" vertex="1" parent="1">
          <mxGeometry x="-100" y="-150" width="170" height="60" as="geometry" />
        </mxCell>
        <mxCell id="wIsJc7n_yPizJER-kU21-47" value="&lt;span style=&quot;font-family: ui-monospace, SFMono-Regular, &amp;quot;SF Mono&amp;quot;, Menlo, Consolas, &amp;quot;Liberation Mono&amp;quot;, monospace; letter-spacing: -0.16px; text-align: left; white-space-collapse: break-spaces;&quot;&gt;&lt;font&gt;std::move()&lt;/font&gt;&lt;/span&gt;" style="rounded=1;whiteSpace=wrap;html=1;fillColor=#dae8fc;strokeColor=#6c8ebf;fontSize=16;fontStyle=1" vertex="1" parent="1">
          <mxGeometry x="320" y="-150" width="120" height="60" as="geometry" />
        </mxCell>
        <mxCell id="wIsJc7n_yPizJER-kU21-48" value="&lt;span style=&quot;font-family: ui-monospace, SFMono-Regular, &amp;quot;SF Mono&amp;quot;, Menlo, Consolas, &amp;quot;Liberation Mono&amp;quot;, monospace; letter-spacing: -0.16px; text-align: left; white-space-collapse: break-spaces;&quot;&gt;&lt;font&gt;std::forward&amp;lt;T&amp;gt;()&lt;/font&gt;&lt;/span&gt;" style="rounded=1;whiteSpace=wrap;html=1;fillColor=#dae8fc;strokeColor=#6c8ebf;fontSize=16;fontStyle=1" vertex="1" parent="1">
          <mxGeometry x="743" y="-160" width="180" height="60" as="geometry" />
        </mxCell>
        <mxCell id="wIsJc7n_yPizJER-kU21-51" value="" style="endArrow=classic;html=1;rounded=0;entryX=0.5;entryY=1;entryDx=0;entryDy=0;exitX=0.5;exitY=0;exitDx=0;exitDy=0;" edge="1" parent="1" source="wIsJc7n_yPizJER-kU21-48" target="wIsJc7n_yPizJER-kU21-9">
          <mxGeometry width="50" height="50" relative="1" as="geometry">
            <mxPoint x="971" as="sourcePoint" />
            <mxPoint x="930" y="-250" as="targetPoint" />
          </mxGeometry>
        </mxCell>
        <mxCell id="wIsJc7n_yPizJER-kU21-52" value="" style="endArrow=classic;html=1;rounded=0;entryX=0.5;entryY=1;entryDx=0;entryDy=0;exitX=0.5;exitY=0;exitDx=0;exitDy=0;" edge="1" parent="1" source="wIsJc7n_yPizJER-kU21-47" target="wIsJc7n_yPizJER-kU21-10">
          <mxGeometry width="50" height="50" relative="1" as="geometry">
            <mxPoint x="460" y="-40" as="sourcePoint" />
            <mxPoint x="510" y="-90" as="targetPoint" />
          </mxGeometry>
        </mxCell>
        <mxCell id="wIsJc7n_yPizJER-kU21-53" value="对象与内存模型" style="rounded=0;whiteSpace=wrap;html=1;fillColor=#d5e8d4;strokeColor=#82b366;" vertex="1" parent="1">
          <mxGeometry x="120" y="1100" width="140" height="30" as="geometry" />
        </mxCell>
        <mxCell id="wIsJc7n_yPizJER-kU21-54" value="语言核心与类型系统" style="rounded=0;whiteSpace=wrap;html=1;fillColor=#d5e8d4;strokeColor=#82b366;" vertex="1" parent="1">
          <mxGeometry x="120" y="1130" width="140" height="30" as="geometry" />
        </mxCell>
        <mxCell id="wIsJc7n_yPizJER-kU21-55" value="资源管理与内存控制" style="rounded=0;whiteSpace=wrap;html=1;fillColor=#d5e8d4;strokeColor=#82b366;" vertex="1" parent="1">
          <mxGeometry x="120" y="1190" width="140" height="30" as="geometry" />
        </mxCell>
        <mxCell id="wIsJc7n_yPizJER-kU21-56" value="编译、链接与运行" style="rounded=0;whiteSpace=wrap;html=1;fillColor=#d5e8d4;strokeColor=#82b366;" vertex="1" parent="1">
          <mxGeometry x="120" y="1220" width="140" height="30" as="geometry" />
        </mxCell>
        <mxCell id="wIsJc7n_yPizJER-kU21-57" value="&amp;nbsp;引用与指针、&amp;nbsp;静态成员与非静态成员、this 指针、内存布局" style="rounded=0;whiteSpace=wrap;html=1;align=left;fillColor=#d5e8d4;strokeColor=#82b366;" vertex="1" parent="1">
          <mxGeometry x="260" y="1100" width="340" height="30" as="geometry" />
        </mxCell>
        <mxCell id="wIsJc7n_yPizJER-kU21-58" value="&amp;nbsp;值类别、多态、虚函数表、函数调用机制、异常原理" style="rounded=0;whiteSpace=wrap;html=1;align=left;fillColor=#d5e8d4;strokeColor=#82b366;" vertex="1" parent="1">
          <mxGeometry x="260" y="1130" width="340" height="30" as="geometry" />
        </mxCell>
        <mxCell id="wIsJc7n_yPizJER-kU21-59" value="&amp;nbsp;new/delete机制、RAII思想、智能指针、栈堆原理、深拷贝" style="rounded=0;whiteSpace=wrap;html=1;align=left;fillColor=#d5e8d4;strokeColor=#82b366;" vertex="1" parent="1">
          <mxGeometry x="260" y="1190" width="340" height="30" as="geometry" />
        </mxCell>
        <mxCell id="wIsJc7n_yPizJER-kU21-60" value="&amp;nbsp;编译流程、名字修饰、静态/动态链接、ABI 兼容性问题" style="rounded=0;whiteSpace=wrap;html=1;align=left;fillColor=#d5e8d4;strokeColor=#82b366;" vertex="1" parent="1">
          <mxGeometry x="260" y="1220" width="340" height="30" as="geometry" />
        </mxCell>
        <mxCell id="wIsJc7n_yPizJER-kU21-61" value="类别" style="rounded=0;whiteSpace=wrap;html=1;fillColor=#d5e8d4;strokeColor=#82b366;gradientColor=#97d077;fontStyle=1" vertex="1" parent="1">
          <mxGeometry x="120" y="1070" width="140" height="30" as="geometry" />
        </mxCell>
        <mxCell id="wIsJc7n_yPizJER-kU21-62" value="主要内容" style="rounded=0;whiteSpace=wrap;html=1;fillColor=#d5e8d4;strokeColor=#82b366;align=center;gradientColor=#97d077;fontStyle=1" vertex="1" parent="1">
          <mxGeometry x="260" y="1070" width="340" height="30" as="geometry" />
        </mxCell>
        <mxCell id="wIsJc7n_yPizJER-kU21-63" value="1" style="rounded=0;whiteSpace=wrap;html=1;fillColor=#d5e8d4;strokeColor=#82b366;" vertex="1" parent="1">
          <mxGeometry x="70" y="1100" width="50" height="30" as="geometry" />
        </mxCell>
        <mxCell id="wIsJc7n_yPizJER-kU21-64" value="2" style="rounded=0;whiteSpace=wrap;html=1;fillColor=#d5e8d4;strokeColor=#82b366;" vertex="1" parent="1">
          <mxGeometry x="70" y="1130" width="50" height="30" as="geometry" />
        </mxCell>
        <mxCell id="wIsJc7n_yPizJER-kU21-65" value="4" style="rounded=0;whiteSpace=wrap;html=1;fillColor=#d5e8d4;strokeColor=#82b366;" vertex="1" parent="1">
          <mxGeometry x="70" y="1190" width="50" height="30" as="geometry" />
        </mxCell>
        <mxCell id="wIsJc7n_yPizJER-kU21-66" value="5" style="rounded=0;whiteSpace=wrap;html=1;fillColor=#d5e8d4;strokeColor=#82b366;" vertex="1" parent="1">
          <mxGeometry x="70" y="1220" width="50" height="30" as="geometry" />
        </mxCell>
        <mxCell id="wIsJc7n_yPizJER-kU21-67" value="序号" style="rounded=0;whiteSpace=wrap;html=1;fillColor=#d5e8d4;strokeColor=#82b366;gradientColor=#97d077;fontStyle=1" vertex="1" parent="1">
          <mxGeometry x="70" y="1070" width="50" height="30" as="geometry" />
        </mxCell>
        <mxCell id="wIsJc7n_yPizJER-kU21-68" value="标准演进与现代特性" style="rounded=0;whiteSpace=wrap;html=1;fillColor=#d5e8d4;strokeColor=#82b366;" vertex="1" parent="1">
          <mxGeometry x="120" y="1280" width="140" height="30" as="geometry" />
        </mxCell>
        <mxCell id="wIsJc7n_yPizJER-kU21-69" value="&amp;nbsp;C++11/14/17/20 新特性及其背后的设计思想" style="rounded=0;whiteSpace=wrap;html=1;align=left;fillColor=#d5e8d4;strokeColor=#82b366;" vertex="1" parent="1">
          <mxGeometry x="260" y="1280" width="340" height="30" as="geometry" />
        </mxCell>
        <mxCell id="wIsJc7n_yPizJER-kU21-70" value="7" style="rounded=0;whiteSpace=wrap;html=1;fillColor=#d5e8d4;strokeColor=#82b366;" vertex="1" parent="1">
          <mxGeometry x="70" y="1280" width="50" height="30" as="geometry" />
        </mxCell>
        <mxCell id="wIsJc7n_yPizJER-kU21-71" value="模板与泛型编程" style="rounded=0;whiteSpace=wrap;html=1;fillColor=#d5e8d4;strokeColor=#82b366;" vertex="1" parent="1">
          <mxGeometry x="120" y="1160" width="140" height="30" as="geometry" />
        </mxCell>
        <mxCell id="wIsJc7n_yPizJER-kU21-72" value="&amp;nbsp;模板原理、模板实例化、容器/算法/迭代器实现原理" style="rounded=0;whiteSpace=wrap;html=1;align=left;fillColor=#d5e8d4;strokeColor=#82b366;" vertex="1" parent="1">
          <mxGeometry x="260" y="1160" width="340" height="30" as="geometry" />
        </mxCell>
        <mxCell id="wIsJc7n_yPizJER-kU21-73" value="3" style="rounded=0;whiteSpace=wrap;html=1;fillColor=#d5e8d4;strokeColor=#82b366;" vertex="1" parent="1">
          <mxGeometry x="70" y="1160" width="50" height="30" as="geometry" />
        </mxCell>
        <mxCell id="wIsJc7n_yPizJER-kU21-74" value="编译器与优化" style="rounded=0;whiteSpace=wrap;html=1;fillColor=#d5e8d4;strokeColor=#82b366;" vertex="1" parent="1">
          <mxGeometry x="120" y="1250" width="140" height="30" as="geometry" />
        </mxCell>
        <mxCell id="wIsJc7n_yPizJER-kU21-75" value="&amp;nbsp;不同编译器实现差异，内联、逃逸分析、循环展开原理" style="rounded=0;whiteSpace=wrap;html=1;align=left;fillColor=#d5e8d4;strokeColor=#82b366;" vertex="1" parent="1">
          <mxGeometry x="260" y="1250" width="340" height="30" as="geometry" />
        </mxCell>
        <mxCell id="wIsJc7n_yPizJER-kU21-76" value="6" style="rounded=0;whiteSpace=wrap;html=1;fillColor=#d5e8d4;strokeColor=#82b366;" vertex="1" parent="1">
          <mxGeometry x="70" y="1250" width="50" height="30" as="geometry" />
        </mxCell>
        <mxCell id="wIsJc7n_yPizJER-kU21-77" value="并发编程" style="rounded=0;whiteSpace=wrap;html=1;fillColor=#d5e8d4;strokeColor=#82b366;" vertex="1" parent="1">
          <mxGeometry x="120" y="1310" width="140" height="30" as="geometry" />
        </mxCell>
        <mxCell id="wIsJc7n_yPizJER-kU21-78" value="&amp;nbsp;线程调度、上下文切换、C++ 内存模型、原子操作等" style="rounded=0;whiteSpace=wrap;html=1;align=left;fillColor=#d5e8d4;strokeColor=#82b366;" vertex="1" parent="1">
          <mxGeometry x="260" y="1310" width="340" height="30" as="geometry" />
        </mxCell>
        <mxCell id="wIsJc7n_yPizJER-kU21-79" value="8" style="rounded=0;whiteSpace=wrap;html=1;fillColor=#d5e8d4;strokeColor=#82b366;" vertex="1" parent="1">
          <mxGeometry x="70" y="1310" width="50" height="30" as="geometry" />
        </mxCell>
      </root>
    </mxGraphModel>
  </diagram>
</mxfile>
